<svg xmlns="http://www.w3.org/2000/svg" viewBox="0 0 120 120" width="120" height="120">
  <defs>
    <linearGradient id="bg" x1="0%" y1="0%" x2="100%" y2="100%">
      <stop offset="0%" style="stop-color:#3B2F6B"/>
      <stop offset="100%" style="stop-color:#1A1235"/>
    </linearGradient>
  </defs>
  <rect width="120" height="120" rx="26" fill="url(#bg)"/>
  <!-- Telegram-style chat bubble -->
  <path d="M28 38 Q28 28 38 28 L82 28 Q92 28 92 38 L92 72 Q92 82 82 82 L62 82 L52 94 L52 82 L38 82 Q28 82 28 72 Z" fill="#F5F0FF" opacity="0.15"/>
  <!-- Bot face / butler icon -->
  <circle cx="60" cy="53" r="18" fill="none" stroke="#C4B8FF" stroke-width="2.5"/>
  <circle cx="53" cy="50" r="2.5" fill="#C4B8FF"/>
  <circle cx="67" cy="50" r="2.5" fill="#C4B8FF"/>
  <path d="M53 59 Q60 65 67 59" fill="none" stroke="#C4B8FF" stroke-width="2" stroke-linecap="round"/>
  <!-- Bow-tie -->
  <path d="M52 70 L56 73 L52 76 Z" fill="#C4B8FF"/>
  <path d="M68 70 L64 73 L68 76 Z" fill="#C4B8FF"/>
  <circle cx="60" cy="73" r="2" fill="#C4B8FF"/>
</svg>
